<mxfile host="app.diagrams.net" agent="Mozilla/5.0 (Windows NT 10.0; Win64; x64) AppleWebKit/537.36 (KHTML, like Gecko) Chrome/130.0.0.0 Safari/537.36" version="24.8.4">
  <diagram name="Page-1" id="SFWPzy56wumSebeRqVf8">
    <mxGraphModel dx="1035" dy="541" grid="1" gridSize="10" guides="1" tooltips="1" connect="1" arrows="1" fold="1" page="1" pageScale="1" pageWidth="850" pageHeight="1100" math="0" shadow="0">
      <root>
        <mxCell id="0" />
        <mxCell id="1" parent="0" />
        <mxCell id="rZr25WOMZtbcO9NOPSWP-1" value="Job_seeker" style="shape=umlActor;verticalLabelPosition=bottom;verticalAlign=top;html=1;outlineConnect=0;" parent="1" vertex="1">
          <mxGeometry x="100" y="360" width="30" height="60" as="geometry" />
        </mxCell>
        <mxCell id="rZr25WOMZtbcO9NOPSWP-2" value="Employer" style="shape=umlActor;verticalLabelPosition=bottom;verticalAlign=top;html=1;outlineConnect=0;" parent="1" vertex="1">
          <mxGeometry x="720" y="460" width="30" height="60" as="geometry" />
        </mxCell>
        <mxCell id="rZr25WOMZtbcO9NOPSWP-6" value="Registration&amp;nbsp;&lt;div&gt;Process&lt;/div&gt;" style="ellipse;whiteSpace=wrap;html=1;" parent="1" vertex="1">
          <mxGeometry x="252.5" y="190" width="120" height="60" as="geometry" />
        </mxCell>
        <mxCell id="rZr25WOMZtbcO9NOPSWP-7" value="AI Filter" style="ellipse;whiteSpace=wrap;html=1;" parent="1" vertex="1">
          <mxGeometry x="440" y="190" width="120" height="60" as="geometry" />
        </mxCell>
        <mxCell id="rZr25WOMZtbcO9NOPSWP-10" value="Log in" style="ellipse;whiteSpace=wrap;html=1;" parent="1" vertex="1">
          <mxGeometry x="250" y="370" width="117.5" height="60" as="geometry" />
        </mxCell>
        <mxCell id="rZr25WOMZtbcO9NOPSWP-11" value="Job Post" style="ellipse;whiteSpace=wrap;html=1;" parent="1" vertex="1">
          <mxGeometry x="250" y="440" width="120" height="60" as="geometry" />
        </mxCell>
        <mxCell id="rZr25WOMZtbcO9NOPSWP-12" value="Approval&lt;div&gt;Process&lt;/div&gt;" style="ellipse;whiteSpace=wrap;html=1;" parent="1" vertex="1">
          <mxGeometry x="440" y="300" width="120" height="60" as="geometry" />
        </mxCell>
        <mxCell id="rZr25WOMZtbcO9NOPSWP-13" value="Data Storage" style="ellipse;whiteSpace=wrap;html=1;" parent="1" vertex="1">
          <mxGeometry x="440" y="585" width="120" height="60" as="geometry" />
        </mxCell>
        <mxCell id="rZr25WOMZtbcO9NOPSWP-24" value="Job link Website" style="shape=umlFrame;whiteSpace=wrap;html=1;pointerEvents=0;" parent="1" vertex="1">
          <mxGeometry x="210" y="155" width="360" height="505" as="geometry" />
        </mxCell>
        <mxCell id="rZr25WOMZtbcO9NOPSWP-28" value="ChatBot" style="ellipse;whiteSpace=wrap;html=1;" parent="1" vertex="1">
          <mxGeometry x="249" y="580" width="122" height="70" as="geometry" />
        </mxCell>
        <mxCell id="rZr25WOMZtbcO9NOPSWP-29" value="Admin" style="shape=umlActor;verticalLabelPosition=bottom;verticalAlign=top;html=1;outlineConnect=0;" parent="1" vertex="1">
          <mxGeometry x="740" y="190" width="30" height="60" as="geometry" />
        </mxCell>
        <mxCell id="rZr25WOMZtbcO9NOPSWP-36" value="" style="endArrow=block;startArrow=block;endFill=1;startFill=1;html=1;rounded=0;exitX=1;exitY=0.5;exitDx=0;exitDy=0;entryX=0;entryY=0.5;entryDx=0;entryDy=0;" parent="1" source="rZr25WOMZtbcO9NOPSWP-6" target="rZr25WOMZtbcO9NOPSWP-7" edge="1">
          <mxGeometry width="160" relative="1" as="geometry">
            <mxPoint x="270" y="220" as="sourcePoint" />
            <mxPoint x="430" y="220" as="targetPoint" />
          </mxGeometry>
        </mxCell>
        <mxCell id="rZr25WOMZtbcO9NOPSWP-37" value="information" style="text;html=1;align=center;verticalAlign=middle;resizable=0;points=[];autosize=1;strokeColor=none;fillColor=none;" parent="1" vertex="1">
          <mxGeometry x="370" y="190" width="80" height="30" as="geometry" />
        </mxCell>
        <mxCell id="rZr25WOMZtbcO9NOPSWP-41" value="Information&lt;div&gt;clearance&lt;/div&gt;" style="text;html=1;align=center;verticalAlign=middle;resizable=0;points=[];autosize=1;strokeColor=none;fillColor=none;" parent="1" vertex="1">
          <mxGeometry x="420" y="250" width="80" height="40" as="geometry" />
        </mxCell>
        <mxCell id="rZr25WOMZtbcO9NOPSWP-43" style="edgeStyle=orthogonalEdgeStyle;rounded=0;orthogonalLoop=1;jettySize=auto;html=1;entryX=0.908;entryY=0.75;entryDx=0;entryDy=0;entryPerimeter=0;" parent="1" source="rZr25WOMZtbcO9NOPSWP-2" target="rZr25WOMZtbcO9NOPSWP-6" edge="1">
          <mxGeometry relative="1" as="geometry" />
        </mxCell>
        <mxCell id="rZr25WOMZtbcO9NOPSWP-46" value="request" style="text;html=1;align=center;verticalAlign=middle;resizable=0;points=[];autosize=1;strokeColor=none;fillColor=none;" parent="1" vertex="1">
          <mxGeometry x="267" y="270" width="60" height="30" as="geometry" />
        </mxCell>
        <mxCell id="rZr25WOMZtbcO9NOPSWP-47" value="response" style="text;html=1;align=center;verticalAlign=middle;resizable=0;points=[];autosize=1;strokeColor=none;fillColor=none;" parent="1" vertex="1">
          <mxGeometry x="210" y="290" width="70" height="30" as="geometry" />
        </mxCell>
        <mxCell id="rZr25WOMZtbcO9NOPSWP-49" value="Response" style="text;html=1;align=center;verticalAlign=middle;resizable=0;points=[];autosize=1;strokeColor=none;fillColor=none;" parent="1" vertex="1">
          <mxGeometry x="630" y="300" width="80" height="30" as="geometry" />
        </mxCell>
        <mxCell id="rZr25WOMZtbcO9NOPSWP-56" value="Apply" style="text;html=1;align=center;verticalAlign=middle;resizable=0;points=[];autosize=1;strokeColor=none;fillColor=none;" parent="1" vertex="1">
          <mxGeometry x="160" y="475" width="50" height="30" as="geometry" />
        </mxCell>
        <mxCell id="RsyNS5Jd7DCrgUtB0c8J-2" value="Checking" style="text;html=1;align=center;verticalAlign=middle;resizable=0;points=[];autosize=1;strokeColor=none;fillColor=none;" parent="1" vertex="1">
          <mxGeometry x="600" y="230" width="70" height="30" as="geometry" />
        </mxCell>
        <mxCell id="RsyNS5Jd7DCrgUtB0c8J-3" value="&amp;lt;&amp;lt;Extend&amp;gt;&amp;gt;" style="endArrow=open;endSize=12;dashed=1;html=1;rounded=0;exitX=0.5;exitY=0;exitDx=0;exitDy=0;entryX=0.5;entryY=1;entryDx=0;entryDy=0;" parent="1" source="rZr25WOMZtbcO9NOPSWP-28" target="rZr25WOMZtbcO9NOPSWP-11" edge="1">
          <mxGeometry width="160" relative="1" as="geometry">
            <mxPoint x="170" y="500" as="sourcePoint" />
            <mxPoint x="330" y="500" as="targetPoint" />
          </mxGeometry>
        </mxCell>
        <mxCell id="RsyNS5Jd7DCrgUtB0c8J-4" value="&amp;lt;&amp;lt;Include&amp;gt;&amp;gt;" style="endArrow=open;endSize=12;dashed=1;html=1;rounded=0;exitX=1;exitY=0.667;exitDx=0;exitDy=0;exitPerimeter=0;" parent="1" source="rZr25WOMZtbcO9NOPSWP-11" edge="1">
          <mxGeometry x="0.7143" width="160" relative="1" as="geometry">
            <mxPoint x="300" y="510" as="sourcePoint" />
            <mxPoint x="480" y="580" as="targetPoint" />
            <mxPoint as="offset" />
            <Array as="points">
              <mxPoint x="480" y="480" />
            </Array>
          </mxGeometry>
        </mxCell>
        <mxCell id="RsyNS5Jd7DCrgUtB0c8J-5" value="&amp;lt;&amp;lt;include&amp;gt;&amp;gt;" style="endArrow=open;endSize=12;dashed=1;html=1;rounded=0;exitX=0.658;exitY=0.967;exitDx=0;exitDy=0;exitPerimeter=0;entryX=0.654;entryY=0.089;entryDx=0;entryDy=0;entryPerimeter=0;" parent="1" source="rZr25WOMZtbcO9NOPSWP-12" target="rZr25WOMZtbcO9NOPSWP-13" edge="1">
          <mxGeometry x="-0.2082" width="160" relative="1" as="geometry">
            <mxPoint x="360" y="530" as="sourcePoint" />
            <mxPoint x="510" y="530" as="targetPoint" />
            <mxPoint as="offset" />
          </mxGeometry>
        </mxCell>
        <mxCell id="hlLEdCFcCGXcuw1FR4Kc-2" value="" style="endArrow=classic;startArrow=classic;html=1;rounded=0;exitX=0.994;exitY=0.353;exitDx=0;exitDy=0;exitPerimeter=0;" parent="1" source="rZr25WOMZtbcO9NOPSWP-12" edge="1">
          <mxGeometry width="50" height="50" relative="1" as="geometry">
            <mxPoint x="360" y="450" as="sourcePoint" />
            <mxPoint x="740" y="260" as="targetPoint" />
            <Array as="points">
              <mxPoint x="560" y="260" />
            </Array>
          </mxGeometry>
        </mxCell>
        <mxCell id="hlLEdCFcCGXcuw1FR4Kc-4" value="" style="endArrow=classic;startArrow=classic;html=1;rounded=0;exitX=1;exitY=0.5;exitDx=0;exitDy=0;" parent="1" source="rZr25WOMZtbcO9NOPSWP-13" edge="1">
          <mxGeometry width="50" height="50" relative="1" as="geometry">
            <mxPoint x="720" y="320" as="sourcePoint" />
            <mxPoint x="770" y="270" as="targetPoint" />
            <Array as="points">
              <mxPoint x="770" y="615" />
            </Array>
          </mxGeometry>
        </mxCell>
        <mxCell id="hlLEdCFcCGXcuw1FR4Kc-5" value="Edit Access" style="text;html=1;align=center;verticalAlign=middle;resizable=0;points=[];autosize=1;strokeColor=none;fillColor=none;" parent="1" vertex="1">
          <mxGeometry x="680" y="615" width="90" height="30" as="geometry" />
        </mxCell>
        <mxCell id="hlLEdCFcCGXcuw1FR4Kc-7" value="" style="endArrow=classic;html=1;rounded=0;" parent="1" edge="1">
          <mxGeometry width="50" height="50" relative="1" as="geometry">
            <mxPoint x="120" y="440" as="sourcePoint" />
            <mxPoint x="250" y="480" as="targetPoint" />
            <Array as="points">
              <mxPoint x="120" y="480" />
            </Array>
          </mxGeometry>
        </mxCell>
        <mxCell id="hlLEdCFcCGXcuw1FR4Kc-9" value="Post" style="text;html=1;align=center;verticalAlign=middle;resizable=0;points=[];autosize=1;strokeColor=none;fillColor=none;" parent="1" vertex="1">
          <mxGeometry x="600" y="440" width="50" height="30" as="geometry" />
        </mxCell>
        <mxCell id="hlLEdCFcCGXcuw1FR4Kc-10" value="" style="endArrow=classic;html=1;rounded=0;exitX=1;exitY=1;exitDx=0;exitDy=0;" parent="1" source="rZr25WOMZtbcO9NOPSWP-11" edge="1">
          <mxGeometry width="50" height="50" relative="1" as="geometry">
            <mxPoint x="660" y="570" as="sourcePoint" />
            <mxPoint x="710" y="520" as="targetPoint" />
            <Array as="points">
              <mxPoint x="352" y="520" />
            </Array>
          </mxGeometry>
        </mxCell>
        <mxCell id="hlLEdCFcCGXcuw1FR4Kc-11" value="Apppication" style="text;html=1;align=center;verticalAlign=middle;resizable=0;points=[];autosize=1;strokeColor=none;fillColor=none;" parent="1" vertex="1">
          <mxGeometry x="570" y="520" width="90" height="30" as="geometry" />
        </mxCell>
        <mxCell id="OJA2iu0LM-7QIqysAx0y-4" value="" style="endArrow=classic;html=1;rounded=0;entryX=1;entryY=0.5;entryDx=0;entryDy=0;" edge="1" parent="1" target="rZr25WOMZtbcO9NOPSWP-10">
          <mxGeometry width="50" height="50" relative="1" as="geometry">
            <mxPoint x="760" y="460" as="sourcePoint" />
            <mxPoint x="488.49999999999636" y="400" as="targetPoint" />
            <Array as="points">
              <mxPoint x="760" y="400" />
            </Array>
          </mxGeometry>
        </mxCell>
        <mxCell id="OJA2iu0LM-7QIqysAx0y-6" value="" style="endArrow=classic;html=1;rounded=0;" edge="1" parent="1">
          <mxGeometry width="50" height="50" relative="1" as="geometry">
            <mxPoint x="440" y="320" as="sourcePoint" />
            <mxPoint x="120" y="360" as="targetPoint" />
            <Array as="points">
              <mxPoint x="120" y="320" />
            </Array>
          </mxGeometry>
        </mxCell>
        <mxCell id="OJA2iu0LM-7QIqysAx0y-7" value="" style="endArrow=classic;html=1;rounded=0;" edge="1" parent="1">
          <mxGeometry width="50" height="50" relative="1" as="geometry">
            <mxPoint x="120" y="360" as="sourcePoint" />
            <mxPoint x="320" y="250" as="targetPoint" />
            <Array as="points">
              <mxPoint x="320" y="360" />
            </Array>
          </mxGeometry>
        </mxCell>
        <mxCell id="OJA2iu0LM-7QIqysAx0y-9" value="request" style="text;html=1;align=center;verticalAlign=middle;resizable=0;points=[];autosize=1;strokeColor=none;fillColor=none;" vertex="1" parent="1">
          <mxGeometry x="600" y="480" width="60" height="30" as="geometry" />
        </mxCell>
        <mxCell id="OJA2iu0LM-7QIqysAx0y-10" value="" style="endArrow=classic;html=1;rounded=0;exitX=0.5;exitY=1;exitDx=0;exitDy=0;entryX=0.5;entryY=0;entryDx=0;entryDy=0;" edge="1" parent="1" source="rZr25WOMZtbcO9NOPSWP-7" target="rZr25WOMZtbcO9NOPSWP-12">
          <mxGeometry width="50" height="50" relative="1" as="geometry">
            <mxPoint x="460" y="345" as="sourcePoint" />
            <mxPoint x="521" y="303" as="targetPoint" />
          </mxGeometry>
        </mxCell>
        <mxCell id="OJA2iu0LM-7QIqysAx0y-11" value="" style="endArrow=classic;html=1;rounded=0;" edge="1" parent="1">
          <mxGeometry width="50" height="50" relative="1" as="geometry">
            <mxPoint x="130" y="400" as="sourcePoint" />
            <mxPoint x="250" y="400" as="targetPoint" />
          </mxGeometry>
        </mxCell>
        <mxCell id="OJA2iu0LM-7QIqysAx0y-14" value="" style="endArrow=classic;html=1;rounded=0;" edge="1" parent="1">
          <mxGeometry width="50" height="50" relative="1" as="geometry">
            <mxPoint x="710" y="470" as="sourcePoint" />
            <mxPoint x="370" y="470" as="targetPoint" />
          </mxGeometry>
        </mxCell>
        <mxCell id="OJA2iu0LM-7QIqysAx0y-15" value="" style="endArrow=classic;html=1;rounded=0;exitX=1;exitY=0.5;exitDx=0;exitDy=0;" edge="1" parent="1" source="rZr25WOMZtbcO9NOPSWP-12">
          <mxGeometry width="50" height="50" relative="1" as="geometry">
            <mxPoint x="680" y="510" as="sourcePoint" />
            <mxPoint x="730" y="460" as="targetPoint" />
            <Array as="points">
              <mxPoint x="730" y="330" />
            </Array>
          </mxGeometry>
        </mxCell>
        <mxCell id="OJA2iu0LM-7QIqysAx0y-16" value="" style="endArrow=classic;html=1;rounded=0;" edge="1" parent="1">
          <mxGeometry width="50" height="50" relative="1" as="geometry">
            <mxPoint x="740" y="280" as="sourcePoint" />
            <mxPoint x="360" y="410" as="targetPoint" />
            <Array as="points">
              <mxPoint x="740" y="410" />
            </Array>
          </mxGeometry>
        </mxCell>
      </root>
    </mxGraphModel>
  </diagram>
</mxfile>
